<!DOCTYPE svg PUBLIC "-//W3C//DTD SVG 1.1//EN" "http://www.w3.org/Graphics/SVG/1.1/DTD/svg11.dtd">
<!-- Uploaded to: SVG Repo, www.svgrepo.com, Transformed by: SVG Repo Mixer Tools -->
<svg width="800px" height="800px" viewBox="0 0 100 100" xmlns="http://www.w3.org/2000/svg" xmlns:xlink="http://www.w3.org/1999/xlink" aria-hidden="true" role="img" class="iconify iconify--gis" preserveAspectRatio="xMidYMid meet" fill="#000000">
<g id="SVGRepo_bgCarrier" stroke-width="0"/>
<g id="SVGRepo_tracerCarrier" stroke-linecap="round" stroke-linejoin="round"/>
<g id="SVGRepo_iconCarrier">
<path d="M49.781 23.592C41.947 23.593 34.184 26.96 35 33.688l2 14.624C37.352 50.886 39.09 55 41.688 55h.185L44 80.53c.092 1.103.892 2 2 2h8c1.108 0 1.908-.897 2-2L58.127 55h.185c2.597 0 4.336-4.115 4.688-6.688l2-14.624c.523-6.734-7.384-10.098-15.219-10.096z" fill="#00bbe0"/>
<path d="M50.024 50.908l-.048.126c.016-.038.027-.077.043-.115l.005-.011z" fill="#00bbe0"/>
<path d="M34.006 69.057C19.88 71.053 10 75.828 10 82.857C10 92.325 26.508 100 50 100s40-7.675 40-17.143c0-7.029-9.879-11.804-24.004-13.8l-1.957 3.332C74.685 73.866 82 76.97 82 80.572c0 5.05-14.327 9.143-32 9.143c-17.673 0-32-4.093-32-9.143c-.001-3.59 7.266-6.691 17.945-8.174c-.645-1.114-1.294-2.226-1.94-3.341z" fill="#00bbe0"/>
<circle r="10.5" cy="10.5" cx="50" fill="#00bbe0"/>
</g>
</svg>